# xmcd CD database file
#
# Track frame offsets:
#	150
#	21245
#	44471
#	65006
#	89508
#	108956
#	136453
#	155271
#	169615
#	215257
#
# Disc length: 3214 seconds
#
# Revision: 0
# Processed by: cddbd v1.5.1PL2 Copyright (c) Steve Scherf et al.
# Submitted via: Feurio! 1.68 - http://www.feurio.com
#
DISCID=850c8c0a
DTITLE=The Tone Generators - Burning Daylight
DYEAR=1999
DGENRE=blues
TTITLE0=M. T. Blues
TTITLE1=I'm Cold Because I'm Old
TTITLE2=Why Can't You Love Me
TTITLE3=Burning Daylight
TTITLE4=Between You And Me
TTITLE5=Sugar Sweet
TTITLE6=Driving All Night
TTITLE7=State Street Shuffle
TTITLE8=My Jesus Told Me So
TTITLE9=Dear Daddy (The Reprise)
EXTD=
EXTT0=
EXTT1=
EXTT2=
EXTT3=
EXTT4=
EXTT5=
EXTT6=
EXTT7=
EXTT8=
EXTT9=
PLAYORDER=
